<?xml version="1.0" standalone="no"?>
<!DOCTYPE svg PUBLIC "-//W3C//DTD SVG 20010904//EN"
 "http://www.w3.org/TR/2001/REC-SVG-20010904/DTD/svg10.dtd">
<svg version="1.0" xmlns="http://www.w3.org/2000/svg"
 width="16.000000pt" height="16.000000pt" viewBox="0 0 16.000000 16.000000"
 preserveAspectRatio="xMidYMid meet">
<metadata>
Created by potrace 1.11, written by Peter Selinger 2001-2013
</metadata>
<g transform="translate(0.000000,16.000000) scale(0.002286,-0.002286)"
fill="#000000" stroke="none">
<path d="M3140 6313 c-61 -4 -248 -22 -285 -28 -16 -3 -57 -10 -90 -16 -74
-13 -284 -65 -345 -86 -25 -8 -49 -16 -55 -17 -5 -2 -21 -7 -35 -13 -14 -6
-52 -21 -85 -33 -95 -35 -332 -153 -425 -210 -215 -133 -378 -263 -555 -444
-66 -68 -131 -137 -145 -155 -14 -18 -44 -56 -66 -84 -111 -139 -232 -337
-324 -529 -54 -115 -155 -385 -166 -448 -3 -14 -11 -47 -19 -75 -13 -49 -39
-180 -51 -260 -3 -22 -7 -51 -10 -65 -16 -94 -22 -406 -11 -560 12 -153 52
-399 83 -500 9 -30 25 -84 36 -120 19 -64 57 -172 85 -240 42 -104 173 -351
241 -455 270 -415 659 -763 1101 -984 259 -130 574 -229 842 -266 25 -3 57 -7
70 -10 38 -6 164 -15 297 -21 l122 -5 1 173 c0 95 2 245 4 333 2 88 6 318 9
510 4 193 8 465 11 605 5 286 13 732 20 1165 5 278 8 462 20 1215 3 190 8 444
10 565 6 294 17 836 18 960 l2 100 -130 0 c-71 0 -150 -1 -175 -2z"/>
<path d="M3609 6197 c0 -67 -2 -203 -4 -302 -4 -203 -13 -738 -20 -1135 -3
-146 -7 -391 -10 -545 -3 -154 -7 -417 -10 -585 -3 -168 -7 -429 -10 -580 -2
-151 -7 -432 -10 -625 -3 -192 -7 -460 -10 -595 -3 -135 -7 -378 -10 -540 -3
-162 -7 -364 -9 -449 l-3 -153 201 5 c180 6 301 15 399 32 17 3 45 7 61 10
420 66 890 277 1241 554 149 117 348 313 458 451 273 340 481 778 561 1180 17
88 26 140 31 175 3 22 10 78 16 125 12 97 16 425 5 515 -4 33 -9 80 -12 105
-5 41 -25 167 -39 245 -12 61 -68 262 -97 344 -108 308 -285 622 -489 866 -92
109 -291 311 -348 353 -20 14 -40 31 -46 37 -26 29 -306 225 -321 225 -3 0
-18 8 -32 19 -41 28 -256 135 -352 175 -171 69 -296 106 -545 162 -11 3 -33 7
-50 9 -16 2 -46 7 -65 10 -72 11 -237 24 -377 30 l-103 4 -1 -122z"/>
</g>
</svg>
